Coordinates
version=1
nRows=5
nColumns=40
inDegrees=yes

Units are S.I. units (second, meters, Newtons, ...)
Angles are in degrees.

endheader
time	pelvis_tilt	pelvis_list	pelvis_rotation	pelvis_tx	pelvis_ty	pelvis_tz	hip_flexion_r	hip_adduction_r	hip_rotation_r	knee_angle_r	knee_angle_r_beta	ankle_angle_r	subtalar_angle_r	mtp_angle_r	hip_flexion_l	hip_adduction_l	hip_rotation_l	knee_angle_l	knee_angle_l_beta	ankle_angle_l	subtalar_angle_l	mtp_angle_l	lumbar_extension	lumbar_bending	lumbar_rotation	arm_flex_r	arm_add_r	arm_rot_r	elbow_flex_r	pro_sup_r	wrist_flex_r	wrist_dev_r	arm_flex_l	arm_add_l	arm_rot_l	elbow_flex_l	pro_sup_l	wrist_flex_l	wrist_dev_l
     47.39128571	     -5.45463098	     -5.16575961	     -2.90777942	      0.77968757	      0.93410336	      0.43498444	     31.49293780	     -4.69090678	     -7.63276144	     57.99892078	     57.99892078	      2.98423543	    -10.46918157	     -0.88489766	     12.82060335	     -5.47375841	     -9.46412329	     19.23289314	     19.23289314	     14.05938497	     -7.64450976	      0.00980034	    -10.55689144	      6.31301600	      1.52808984	     -2.57040316	    -12.59484857	     -5.85173987	     31.36572964	     46.26999359	      0.00000000	      0.00000000	      8.60153639	    -21.75520666	    -13.43351553	     71.34187086	     47.81164235	      0.00000000	      0.00000000
     47.40507143	     -5.39832934	     -5.16318705	     -3.06456264	      0.77952346	      0.93437838	      0.43494534	     31.81151624	     -4.49932413	     -8.13344672	     55.14267471	     55.14267471	      3.27039685	    -10.17136048	     -0.85743206	     11.98117298	     -5.46231685	     -9.85979033	     18.73813864	     18.73813864	     14.31793239	     -7.13055473	     -0.19935806	    -10.56570675	      6.23356355	      1.35867141	     -4.20723561	    -12.35904067	     -5.81015928	     30.48735035	     46.28749032	      0.00000000	      0.00000000	      9.43127878	    -22.07608859	    -13.82251991	     72.25297674	     47.85726448	      0.00000000	      0.00000000
     47.41885714	     -5.49309282	     -5.11755977	     -3.20191633	      0.77928472	      0.93424304	      0.43504138	     32.15677255	     -4.31572794	     -8.63940485	     51.96075259	     51.96075259	      3.55135122	     -9.73119864	     -0.63626191	     11.38665372	     -5.40221498	    -10.09986450	     18.36362380	     18.36362380	     14.58847780	     -6.83609852	     -0.34338994	    -10.35954325	      6.13386009	      0.96766746	     -5.78765480	    -12.08931638	     -5.79206808	     29.87320785	     46.29715692	      0.00000000	      0.00000000	     10.11699569	    -22.60972525	    -14.15854458	     72.85017416	     47.89292977	      0.00000000	      0.00000000
     47.43264286	     -5.41048612	     -5.09208510	     -3.34669310	      0.77927405	      0.93433536	      0.43520326	     32.07131834	     -4.06913687	     -9.13911237	     48.34330192	     48.34330192	      3.85304176	     -9.02158344	     -0.47120874	     10.49387249	     -5.35794836	    -10.49010841	     17.83936909	     17.83936909	     14.86374090	     -6.32199970	     -0.52859511	    -10.38220362	      6.06124267	      0.85374827	     -7.30063593	    -11.97859162	     -5.81225491	     29.25287298	     46.31052622	      0.00000000	      0.00000000	     10.86645723	    -22.75809121	    -14.44492507	     73.72556804	     47.92978458	      0.00000000	      0.00000000
     47.44642857	     -5.28818054	     -4.99187868	     -3.51149194	      0.77932428	      0.93429984	      0.43555921	     31.79673561	     -3.85734028	     -9.61493032	     44.47626296	     44.47626296	      4.07919544	     -8.07454684	     -0.41897805	      9.56613590	     -5.26149671	    -11.01194725	     17.33836432	     17.33836432	     15.14623844	     -5.66445877	     -0.82055025	    -10.47551762	      5.86577883	      0.83862253	     -8.78804410	    -11.87086241	     -5.90003683	     28.70873921	     46.32549880	      0.00000000	      0.00000000	     11.62043176	    -22.85433460	    -14.73259021	     74.69636701	     47.96854927	      0.00000000	      0.00000000
